P2
#cereateed
5 4 
255
152 3 15 6 27
33 17 17 54 21 
4 6 16 37 28 
12 31 62 97 101